<?xml version="1.0" encoding="utf-8"?>
<!-- Generator: Adobe Illustrator 15.0.0, SVG Export Plug-In . SVG Version: 6.00 Build 0)  -->
<!DOCTYPE svg PUBLIC "-//W3C//DTD SVG 1.1//EN" "http://www.w3.org/Graphics/SVG/1.1/DTD/svg11.dtd">
<svg version="1.1" id="Capa_1" xmlns="http://www.w3.org/2000/svg" xmlns:xlink="http://www.w3.org/1999/xlink" x="0px" y="0px"
	 width="612.01px" height="612.01px" viewBox="0 0 612.01 612.01" enable-background="new 0 0 612.01 612.01" xml:space="preserve">
<g>
	<g>
		<path fill="#C5C5C5" d="M606.209,578.714L448.198,423.228C489.576,378.272,515,318.817,515,253.393
			C514.98,113.439,399.704,0,257.493,0S0.006,113.439,0.006,253.393c0,139.954,115.276,253.393,257.487,253.393
			c61.445,0,117.801-21.253,162.067-56.586l158.624,156.099c7.729,7.614,20.277,7.614,28.007,0
			C613.938,598.686,613.938,586.328,606.209,578.714z M257.493,467.8c-120.326,0-217.869-95.992-217.869-214.407
			c0-118.414,97.543-214.407,217.869-214.407c120.327,0,217.869,95.993,217.869,214.407C475.362,371.808,377.82,467.8,257.493,467.8
			z"/>
	</g>
</g>
</svg>
